<svg id="Layer_1" data-name="Layer 1" xmlns="http://www.w3.org/2000/svg" xmlns:xlink="http://www.w3.org/1999/xlink" viewBox="0 0 718.55 741.15"><defs><style>.cls-1{fill:url(#linear-gradient);}.cls-2{fill:url(#linear-gradient-2);}</style><linearGradient id="linear-gradient" x1="444.48" y1="588.23" x2="553.19" y2="588.23" gradientUnits="userSpaceOnUse"><stop offset="0.01" stop-color="#8c633f"/><stop offset="0.47" stop-color="#eab671"/><stop offset="1" stop-color="#825a38"/></linearGradient><linearGradient id="linear-gradient-2" x1="146.35" y1="568.14" x2="864.89" y2="568.14" xlink:href="#linear-gradient"/></defs><title>Untitled-1</title><path class="cls-1" d="M503.36,761.91S477.7,463,444.48,416.91l58.88,36.24,49.83-38.59s-38.07,92.66-49.83,347.35" transform="translate(-146.35 -197.56)"/><path class="cls-2" d="M855.13,542.52a53.79,53.79,0,0,0-4.51-5.64L707.86,385.12,539.43,212.53a48.91,48.91,0,0,0-70.42,0l-4.68,4.78L164.45,522.73a52.7,52.7,0,0,0-14,26.9A54.72,54.72,0,0,0,161.35,608L468.41,923.45c19.7,20,51.42,20.62,71.24.22L849.49,611.58c18.56-18.65,20.23-48.11,5.65-69.06M505,810l-.36.36L468.45,772l-200.19-208,2-2L503.75,324.64l236,248.94Z" transform="translate(-146.35 -197.56)"/></svg>