<svg id="Layer_1" data-name="Layer 1" xmlns="http://www.w3.org/2000/svg" xmlns:xlink="http://www.w3.org/1999/xlink" viewBox="0 0 1025.23 1061.63"><defs><style>.cls-1{fill:url(#linear-gradient);}.cls-2{fill:url(#linear-gradient-2);}.cls-3{fill:#bd9258;}.cls-4{fill:url(#linear-gradient-3);}.cls-5{fill:url(#linear-gradient-4);}.cls-6{fill:url(#linear-gradient-5);}.cls-7{fill:url(#linear-gradient-6);}.cls-8{fill:url(#linear-gradient-7);}.cls-9{fill:url(#linear-gradient-8);}.cls-10{fill:url(#linear-gradient-9);}.cls-11{fill:url(#linear-gradient-10);}</style><linearGradient id="linear-gradient" x1="496.15" y1="31.41" x2="596.62" y2="31.41" gradientUnits="userSpaceOnUse"><stop offset="0.01" stop-color="#8c633f"/><stop offset="0.47" stop-color="#eab671"/><stop offset="1" stop-color="#825a38"/></linearGradient><linearGradient id="linear-gradient-2" x1="35.77" y1="541.39" x2="1061" y2="541.39" xlink:href="#linear-gradient"/><linearGradient id="linear-gradient-3" x1="173.95" y1="674" x2="459.58" y2="674" xlink:href="#linear-gradient"/><linearGradient id="linear-gradient-4" x1="496.15" y1="34.79" x2="498.81" y2="34.79" xlink:href="#linear-gradient"/><linearGradient id="linear-gradient-5" x1="504.41" y1="27.78" x2="507.33" y2="27.78" xlink:href="#linear-gradient"/><linearGradient id="linear-gradient-6" x1="585.44" y1="27.78" x2="588.36" y2="27.78" xlink:href="#linear-gradient"/><linearGradient id="linear-gradient-7" x1="593.96" y1="34.79" x2="596.62" y2="34.79" xlink:href="#linear-gradient"/><linearGradient id="linear-gradient-8" x1="408.47" y1="476.06" x2="524.64" y2="476.06" xlink:href="#linear-gradient"/><linearGradient id="linear-gradient-9" x1="409.21" y1="643.7" x2="525.38" y2="643.7" xlink:href="#linear-gradient"/><linearGradient id="linear-gradient-10" x1="546.71" y1="555.65" x2="663" y2="555.65" xlink:href="#linear-gradient"/></defs><title>3-طلایی</title><path class="cls-1" d="M496.15,36.08h0c.87-.89,1.76-1.75,2.66-2.59C497.91,34.33,497,35.19,496.15,36.08Zm8.26-7.25c1-.72,1.94-1.42,2.92-2.09C506.35,27.41,505.37,28.1,504.41,28.83Zm81-2.09c1,.67,2,1.37,2.92,2.09C587.4,28.1,586.43,27.41,585.44,26.74ZM594,33.5c.9.84,1.79,1.7,2.66,2.59h0C595.75,35.19,594.86,34.33,594,33.5Z" transform="translate(-35.77 -10.58)"/><path class="cls-2" d="M1047.08,506.92a77.72,77.72,0,0,0-6.43-8L836.94,282.33,601.91,32.5c-27.46-27.91-72.06-29.43-101-3A73.36,73.36,0,0,0,489.47,42.9L61.61,478.68a75.19,75.19,0,0,0-20,38.38c-11.31,27.47-6,60.74,15.61,83.28L495.3,1050.43c28.11,28.54,73.37,29.42,101.64.32L1039,605.46C1065.51,578.86,1067.88,536.82,1047.08,506.92ZM596.62,36.08h0c-.87-.89-1.76-1.75-2.66-2.59C594.86,34.33,595.75,35.19,596.62,36.08Zm-8.26-7.25c-1-.72-1.93-1.42-2.92-2.09C586.43,27.41,587.4,28.1,588.36,28.83Zm-15.28-8.76c-1.06-.44-2.14-.86-3.22-1.25C570.94,19.21,572,19.62,573.08,20.07Zm-4.86-1.81q-2.44-.81-4.95-1.44Q565.77,17.43,568.22,18.26Zm-7-1.93a69.4,69.4,0,0,0-29.61,0A69.09,69.09,0,0,1,561.19,16.33Zm-31.69.49q-2.49.63-5,1.44Q527,17.43,529.5,16.82Zm-6.58,2c-1.08.39-2.16.81-3.22,1.25C520.76,19.62,521.84,19.21,522.92,18.82Zm-15.59,7.92c-1,.67-2,1.37-2.92,2.09C505.37,28.1,506.35,27.41,507.33,26.74Zm-11.18,9.34c.87-.89,1.76-1.75,2.66-2.58-.9.84-1.79,1.7-2.66,2.59Zm51.3,852.42-.52.52-51.58-54.64L209.72,537.65l2.81-2.86L545.73,196,882.39,551.24Z" transform="translate(-35.77 -10.58)"/><polygon class="cls-3" points="459.58 823.8 511.68 877.91 511.16 878.44 459.58 823.8"/><polygon class="cls-4" points="176.75 524.21 459.58 823.8 173.95 527.07 176.75 524.21"/><path class="cls-5" d="M498.81,33.5c-.9.84-1.79,1.7-2.66,2.59h0C497,35.19,497.91,34.33,498.81,33.5Z" transform="translate(-35.77 -10.58)"/><path class="cls-6" d="M507.33,26.74c-1,.67-2,1.37-2.92,2.09C505.37,28.1,506.35,27.41,507.33,26.74Z" transform="translate(-35.77 -10.58)"/><path class="cls-7" d="M588.36,28.83c-1-.72-1.93-1.42-2.92-2.09C586.43,27.41,587.4,28.1,588.36,28.83Z" transform="translate(-35.77 -10.58)"/><path class="cls-8" d="M596.62,36.08h0c-.87-.89-1.76-1.75-2.66-2.59C594.86,34.33,595.75,35.19,596.62,36.08Z" transform="translate(-35.77 -10.58)"/><path class="cls-9" d="M469.68,573.82s22.15-123.06,55-195.52l-55.37,37.86-60.8-37.86s38.7,67.5,61.21,195.52" transform="translate(-35.77 -10.58)"/><path class="cls-10" d="M470.42,741.45s22.15-123.06,55-195.51L470,583.8l-60.8-37.86s38.7,67.49,61.21,195.51" transform="translate(-35.77 -10.58)"/><path class="cls-11" d="M609.7,741.45s-27.47-319.82-63-369.09l63,38.76L663,369.84S622.28,469,609.7,741.45" transform="translate(-35.77 -10.58)"/></svg>