<svg id="Layer_1" data-name="Layer 1" xmlns="http://www.w3.org/2000/svg" xmlns:xlink="http://www.w3.org/1999/xlink" viewBox="0 0 1019.79 1056"><defs><style>.cls-1{fill:url(#linear-gradient);}.cls-2{fill:url(#linear-gradient-2);}.cls-3{fill:url(#linear-gradient-3);}.cls-4{fill:url(#linear-gradient-4);}.cls-5{fill:url(#linear-gradient-5);}.cls-6{fill:url(#linear-gradient-6);}.cls-7{fill:url(#linear-gradient-7);}</style><linearGradient id="linear-gradient" x1="20.76" y1="543" x2="1040.54" y2="543" gradientUnits="userSpaceOnUse"><stop offset="0.01" stop-color="#8c633f"/><stop offset="0.47" stop-color="#eab671"/><stop offset="1" stop-color="#825a38"/></linearGradient><linearGradient id="linear-gradient-2" x1="457.14" y1="846.6" x2="508.96" y2="846.6" xlink:href="#linear-gradient"/><linearGradient id="linear-gradient-3" x1="173.02" y1="670.43" x2="457.14" y2="670.43" xlink:href="#linear-gradient"/><linearGradient id="linear-gradient-4" x1="391.47" y1="478.01" x2="507.03" y2="478.01" xlink:href="#linear-gradient"/><linearGradient id="linear-gradient-5" x1="392.21" y1="644.76" x2="507.76" y2="644.76" xlink:href="#linear-gradient"/><linearGradient id="linear-gradient-6" x1="527.15" y1="476.47" x2="642.72" y2="476.47" xlink:href="#linear-gradient"/><linearGradient id="linear-gradient-7" x1="527.89" y1="643.22" x2="643.45" y2="643.22" xlink:href="#linear-gradient"/></defs><title>4-طلایی</title><path class="cls-1" d="M1026.69,508.71a75.41,75.41,0,0,0-6.39-8L817.67,285.31,583.88,36.8c-27.3-27.76-71.66-29.27-100.45-3A73.44,73.44,0,0,0,472,47.15L46.45,480.62A74.79,74.79,0,0,0,26.52,518.8c-11.25,27.32-6,60.42,15.53,82.84l435.8,447.7c28,28.38,73,29.27,101.1.31l439.73-442.92C1045,580.26,1047.39,538.45,1026.69,508.71ZM569,32.09c-1-.69-1.95-1.35-2.94-2C567,30.73,568,31.4,569,32.09Zm-12.17-7a69.07,69.07,0,0,0-56.28,0A69,69,0,0,1,556.8,25.12Zm-65.51,5c-1,.64-2,1.3-2.94,2C489.32,31.4,490.3,30.73,491.29,30.1Zm38.43,858.16-.52.51-51.3-54.34L193.78,539.28l2.79-2.85L528,199.48,862.88,552.79Z" transform="translate(-20.76 -15)"/><polygon class="cls-2" points="457.14 819.43 508.96 873.26 508.44 873.78 457.14 819.43"/><polygon class="cls-3" points="175.82 521.44 457.14 819.43 173.02 524.28 175.82 521.44"/><path class="cls-4" d="M452.36,575.25s22-122.41,54.67-194.48L452,418.44l-60.49-37.66S430,447.91,452.36,575.25" transform="translate(-20.76 -15)"/><path class="cls-5" d="M453.09,742s22-122.41,54.67-194.48l-55.08,37.66-60.48-37.66S430.7,614.66,453.09,742" transform="translate(-20.76 -15)"/><path class="cls-6" d="M588,573.71s22-122.41,54.67-194.48l-55.08,37.66-60.49-37.66s38.5,67.13,60.89,194.48" transform="translate(-20.76 -15)"/><path class="cls-7" d="M588.78,740.46S610.81,618,643.45,546l-55.08,37.66L527.89,546s38.5,67.14,60.89,194.48" transform="translate(-20.76 -15)"/></svg>