<svg xmlns="http://www.w3.org/2000/svg" width="21" height="21" viewBox="0 0 21 21">
  <g id="white_tokens" data-name="white tokens" transform="translate(0 0)">
    <path id="Path_78" data-name="Path 78" d="M10.5,21A10.5,10.5,0,0,1,3.075,3.075,10.5,10.5,0,0,1,17.925,17.925,10.431,10.431,0,0,1,10.5,21Zm0-19.688A9.188,9.188,0,1,0,19.688,10.5,9.2,9.2,0,0,0,10.5,1.312Z" transform="translate(0 0)" fill="#fff"/>
    <path id="Path_79" data-name="Path 79" d="M186.953,101.906a1.641,1.641,0,1,1,1.641-1.641.656.656,0,1,0,1.313,0,2.958,2.958,0,0,0-2.3-2.879v-.731a.656.656,0,1,0-1.312,0v.731a2.953,2.953,0,0,0,.656,5.832,1.641,1.641,0,1,1-1.641,1.641.656.656,0,0,0-1.312,0,2.958,2.958,0,0,0,2.3,2.879v.731a.656.656,0,1,0,1.313,0v-.731a2.953,2.953,0,0,0-.656-5.832Z" transform="translate(-176.453 -92.063)" fill="#fff"/>
  </g>
</svg>
