<svg xmlns="http://www.w3.org/2000/svg" width="7.273" height="16.163" viewBox="0 0 7.273 16.163">
  <g id="yellow_token_price" data-name="yellow token price" transform="translate(-5.531 -2.886)">
    <path id="Path_79" data-name="Path 79" d="M187.637,103.273a2.02,2.02,0,1,1,2.02-2.02.808.808,0,1,0,1.616,0,3.642,3.642,0,0,0-2.829-3.545v-.9a.808.808,0,0,0-1.616,0v.9a3.636,3.636,0,0,0,.808,7.182,2.02,2.02,0,1,1-2.02,2.02.808.808,0,0,0-1.616,0,3.642,3.642,0,0,0,2.829,3.545v.9a.808.808,0,0,0,1.616,0v-.9a3.636,3.636,0,0,0-.808-7.182Z" transform="translate(-178.469 -93.114)" fill="#f9b80e"/>
  </g>
</svg>
