<svg xmlns="http://www.w3.org/2000/svg" width="12.82" height="15.775" viewBox="0 0 12.82 15.775">
  <g id="yellow_user_share" data-name="yellow user share" transform="translate(-3.5 -1.5)">
    <path id="Path_80" data-name="Path 80" d="M5.478,16.775h8.865A1.478,1.478,0,0,0,15.82,15.3V7.783a1.477,1.477,0,0,0-.433-1.045L11.082,2.433A1.478,1.478,0,0,0,10.037,2H5.478A1.478,1.478,0,0,0,4,3.478V15.3A1.478,1.478,0,0,0,5.478,16.775Z" fill="none" stroke="#f9b80e" stroke-linecap="round" stroke-linejoin="round" stroke-width="1"/>
    <path id="Path_81" data-name="Path 81" d="M13,2.5V7.3h4.433" transform="translate(-2.351 -0.131)" fill="none" stroke="#f9b80e" stroke-linecap="round" stroke-linejoin="round" stroke-width="1"/>
    <path id="Path_82" data-name="Path 82" d="M8,17h5.171" transform="translate(-1.045 -3.918)" fill="none" stroke="#f9b80e" stroke-linecap="round" stroke-linejoin="round" stroke-width="1"/>
    <path id="Path_83" data-name="Path 83" d="M8,13h5.171" transform="translate(-1.045 -2.874)" fill="none" stroke="#f9b80e" stroke-linecap="round" stroke-linejoin="round" stroke-width="1"/>
    <path id="Path_84" data-name="Path 84" d="M8,9h.739" transform="translate(-1.045 -1.829)" fill="none" stroke="#f9b80e" stroke-linecap="round" stroke-linejoin="round" stroke-width="1"/>
  </g>
</svg>
