<svg xmlns="http://www.w3.org/2000/svg" width="16.667" height="16.667" viewBox="0 0 16.667 16.667">
  <g id="setting" transform="translate(-1.5 -1.5)">
    <path id="Path_92" data-name="Path 92" d="M8.327,2.911a1,1,0,0,1,1-.911h1.019a1,1,0,0,1,1,.911,1.112,1.112,0,0,0,.742.919q.154.058.3.123a1.142,1.142,0,0,0,1.188-.137,1.027,1.027,0,0,1,1.383.063l.719.719a.979.979,0,0,1,.06,1.319,1.084,1.084,0,0,0-.114,1.162q.118.247.215.506a1.112,1.112,0,0,0,.919.742,1,1,0,0,1,.911,1v1.019a1,1,0,0,1-.911,1,1.112,1.112,0,0,0-.919.742q-.087.232-.191.455a1.033,1.033,0,0,0,.114,1.1A.937.937,0,0,1,15.7,14.9l-.8.8a.937.937,0,0,1-1.263.057,1.033,1.033,0,0,0-1.1-.114q-.223.1-.455.191a1.112,1.112,0,0,0-.742.919,1,1,0,0,1-1,.911H9.324a1,1,0,0,1-1-.911,1.112,1.112,0,0,0-.742-.919q-.258-.1-.506-.215a1.084,1.084,0,0,0-1.162.114.979.979,0,0,1-1.319-.06l-.719-.719a1.027,1.027,0,0,1-.063-1.383,1.142,1.142,0,0,0,.137-1.188q-.065-.15-.123-.3a1.112,1.112,0,0,0-.919-.742,1,1,0,0,1-.911-1V9.324a1,1,0,0,1,.911-1,1.112,1.112,0,0,0,.919-.742q.068-.181.146-.356a1.192,1.192,0,0,0-.136-1.25A1.067,1.067,0,0,1,3.9,4.541L4.541,3.9A1.067,1.067,0,0,1,5.979,3.84a1.192,1.192,0,0,0,1.25.136Q7.4,3.9,7.585,3.83A1.112,1.112,0,0,0,8.327,2.911Z" fill="none" stroke="#fff" stroke-linecap="round" stroke-linejoin="round" stroke-width="1"/>
    <path id="Path_93" data-name="Path 93" d="M13.7,11.35A2.35,2.35,0,1,1,11.35,9,2.35,2.35,0,0,1,13.7,11.35Z" transform="translate(-1.516 -1.516)" fill="none" stroke="#fff" stroke-linecap="round" stroke-linejoin="round" stroke-width="1"/>
  </g>
</svg>
