<svg id="Layer_1" data-name="Layer 1" xmlns="http://www.w3.org/2000/svg" xmlns:xlink="http://www.w3.org/1999/xlink" viewBox="0 0 642.69 889.31" width="43px" height="60px"><defs><style>.cls-1{fill:url(#linear-gradient);}.cls-2{fill:url(#linear-gradient-2);}</style><linearGradient id="linear-gradient" x1="225.98" y1="402.09" x2="854.87" y2="402.09" gradientUnits="userSpaceOnUse"><stop offset="0.01" stop-color="#8b633e"/><stop offset="0.47" stop-color="#e9b571"/><stop offset="1" stop-color="#815937"/></linearGradient><linearGradient id="linear-gradient-2" x1="212.19" y1="659.73" x2="846.25" y2="659.73" xlink:href="#linear-gradient"/></defs><title>Stark Project</title><path class="cls-1" d="M569.91,705.2h0a44.17,44.17,0,0,0,1.62-64.5L331.4,400.56,540.3,196.12l233.65,237.3a44.68,44.68,0,0,0,62.87.81l4.46-4.06c17.85-17.44,18.25-46.24.41-63.69L571.94,100.39a44.56,44.56,0,0,0-62.47,0L239.32,365.27a44.69,44.69,0,0,0-.81,62.87L508.66,703.58C524.89,720.21,552.06,721,569.91,705.2Z" transform="translate(-212.19 -87.61)"/><path class="cls-2" d="M498.92,353.91h0C479.86,371,479,401,497.3,419.22L739.47,661.39,528.94,867.45,293.67,628.13a45.18,45.18,0,0,0-63.28-.81l-4.46,4.06c-18.25,17.44-18.25,46.65-.41,64.5L497.3,964c17.44,17,45.43,17.44,62.87,0L832.77,697.08c17.85-17.44,17.85-45.84.81-63.69L561.39,355.54C544.36,338.91,516.77,338.09,498.92,353.91Z" transform="translate(-212.19 -87.61)"/></svg>