<svg xmlns="http://www.w3.org/2000/svg" width="21.5" height="21.5" viewBox="0 0 21.5 21.5">
  <g id="Group_179" data-name="Group 179" transform="translate(-1.25 -1.25)">
    <path id="Path_56" data-name="Path 56" d="M6.341,6.159A6.023,6.023,0,0,1,12,2a6.123,6.123,0,0,1,6,6.238A4.082,4.082,0,0,1,22,12.4,4.189,4.189,0,0,1,20,16M6.321,6.206A5.137,5.137,0,0,0,2,11.358a5.262,5.262,0,0,0,2,4.159" fill="none" stroke="#564e4b" stroke-linecap="round" stroke-linejoin="round" stroke-width="1.5"/>
    <path id="Path_57" data-name="Path 57" d="M8,16l4-4m0,0,4,4m-4-4V22" fill="none" stroke="#564e4b" stroke-linecap="round" stroke-linejoin="round" stroke-width="1.5"/>
  </g>
</svg>
