<svg xmlns="http://www.w3.org/2000/svg" width="14" height="13.592" viewBox="0 0 14 13.592">
  <g id="white_share" data-name="white share" transform="translate(-16)">
    <g id="Group_132" data-name="Group 132" transform="translate(16)">
      <path id="Path_33" data-name="Path 33" d="M27.375,8.814a2.714,2.714,0,0,0-2.111.971l-4.12-1.917a2.188,2.188,0,0,0-.085-1.57l4.318-2.362a2.732,2.732,0,0,0,2,.842A2.518,2.518,0,0,0,30,2.389a2.637,2.637,0,0,0-5.25,0,2.19,2.19,0,0,0,.178.864L20.6,5.621a2.736,2.736,0,0,0-1.973-.816A2.518,2.518,0,0,0,16,7.194a2.518,2.518,0,0,0,2.625,2.389,2.71,2.71,0,0,0,2.134-1l4.108,1.911a2.185,2.185,0,0,0-.118.708,2.637,2.637,0,0,0,5.25,0A2.518,2.518,0,0,0,27.375,8.814Zm0-8.017a1.679,1.679,0,0,1,1.75,1.593,1.758,1.758,0,0,1-3.5,0A1.679,1.679,0,0,1,27.375.8Zm-8.75,7.991a1.679,1.679,0,0,1-1.75-1.593,1.758,1.758,0,0,1,3.5,0A1.679,1.679,0,0,1,18.625,8.787Zm8.75,4.009a1.679,1.679,0,0,1-1.75-1.593,1.758,1.758,0,0,1,3.5,0A1.679,1.679,0,0,1,27.375,12.8Z" transform="translate(-16 0)" fill="#fff"/>
    </g>
  </g>
</svg>
